# xmcd
#
# Track frame offsets:
#	150
#	1191
#	128579
#	159052
#	244061
#	264265
#	270610
#	276279
#	292242
#
# Disc length: 4245 seconds
#
# Revision: 1
# Processed by: cddbd v1.5.2PL0 Copyright (c) Steve Scherf et al.
# Submitted via: audiograbber 1.83.01
#
DISCID=74109309
DTITLE=Grateful Dead - 72-04-14A Tivoli Garden, Copenhagen, Denmark
DYEAR=1900
DGENRE=
TTITLE0=Crowd and Tuning
TTITLE1=Dark Star
TTITLE2=Sugar Magnolia
TTITLE3=Good Lovin'
TTITLE4=Caution
TTITLE5=Who Do You Love
TTITLE6=Caution
TTITLE7=Good Lovin'
TTITLE8=Ramble On Rose
EXTD=
EXTT0=
EXTT1=
EXTT2=
EXTT3=
EXTT4=
EXTT5=
EXTT6=
EXTT7=
EXTT8=
PLAYORDER=
